<svg xmlns="http://www.w3.org/2000/svg" id="Layer_1" viewBox="0 0 395.15 162.87"><defs><style>.cls-1{fill:#fff;}.cls-1,.cls-2{stroke-width:0px;}.cls-2{fill:#e2e0e0;}</style></defs><rect class="cls-2" x=".11" y="1.08" width="19.2" height="125.64"></rect><polygon class="cls-2" points="67.6 126.72 48.04 42.18 48.22 64.26 48.22 126.72 30.99 126.72 30.99 1.08 53.42 1.08 71.37 78.62 71.19 57.62 71.19 1.08 88.42 1.08 88.42 126.72 67.6 126.72"></polygon><polygon class="cls-1" points="141.74 1.08 141.74 18.49 119.12 18.49 119.12 54.75 140.84 54.75 140.84 72.15 119.12 72.15 119.12 126.72 99.91 126.72 99.91 1.08 141.74 1.08"></polygon><path class="cls-1" d="M181.42,16.87h-3.95c-5.03,0-7.36,2.33-7.36,7.36v79.34c0,5.02,2.33,7.36,7.36,7.36h3.95c4.84,0,7.18-2.34,7.18-7.36V24.23c0-5.03-2.34-7.36-7.18-7.36M184.47,127.8h-10.23c-15.61,0-23.33-7.72-23.33-23.33V23.33C150.9,7.72,158.62,0,174.23,0h10.23c15.62,0,23.33,7.71,23.33,23.33v81.13c0,15.61-7.71,23.33-23.33,23.33"></path><path class="cls-1" d="M247.48,18.13h-9.34v41.46h8.62c5.38,0,7.9-2.51,7.9-7.72v-26.56c0-4.84-2.34-7.18-7.18-7.18M274.04,84v42.72h-19.21v-42.36c0-5.56-2.51-8.08-8.08-8.08h-8.62v50.44h-19.21V1.08h31.59c15.62,0,23.34,7.72,23.34,23.33v23.69c0,11.13-3.95,16.51-10.95,19.39,7.9,2.15,11.13,7,11.13,16.51"></path><path class="cls-1" d="M341,75.21v29.26c0,15.61-7.72,23.33-23.34,23.33h-9.51c-15.62,0-23.34-7.72-23.34-23.33V23.33c0-15.62,7.72-23.33,23.34-23.33h9.33c15.62,0,23.15,7.54,23.15,23.15v25.67h-18.85v-24.59c0-5.03-2.34-7.36-7.18-7.36h-3.23c-5.03,0-7.36,2.33-7.36,7.36v79.34c0,5.02,2.33,7.36,7.36,7.36h3.59c4.85,0,7.18-2.34,7.18-7.36v-28.36h18.85Z"></path><polygon class="cls-1" points="394.5 1.08 394.5 18.49 370.98 18.49 370.98 54.03 393.6 54.03 393.6 71.43 370.98 71.43 370.98 109.31 394.85 109.31 394.85 126.72 351.78 126.72 351.78 1.08 394.5 1.08"></polygon><path class="cls-1" d="M12.2,152.58l-3.94,3.91v6.32h-3.14v-6.32l-3.94-3.91C.25,151.68,0,150.97,0,149.71v-4.78h3.08v4.65c0,.65,0,.74.4,1.11l3.17,3.23,3.2-3.23c.4-.37.4-.46.4-1.11v-4.65h3.11v4.78c0,1.26-.25,1.97-1.17,2.87"></path><path class="cls-1" d="M35.49,148.94c0-.62-.52-1.14-1.08-1.14h-5.79c-.55,0-1.08.52-1.08,1.14v9.86c0,.62.52,1.14,1.08,1.14h5.79c.56,0,1.08-.52,1.08-1.14v-9.86ZM34.2,162.81h-5.36c-2.53,0-4.38-1.76-4.38-4.16v-9.55c0-2.4,1.85-4.16,4.38-4.16h5.36c2.53,0,4.38,1.76,4.38,4.16v9.55c0,2.4-1.85,4.16-4.38,4.16"></path><path class="cls-1" d="M58.78,162.81h-4.75c-2.53,0-4.38-1.76-4.38-4.16v-13.71h3.2v13.87c0,.62.52,1.14,1.08,1.14h4.93c.56,0,1.08-.52,1.08-1.14v-13.87h3.2v13.71c0,2.4-1.85,4.16-4.38,4.16"></path><path class="cls-1" d="M84.48,148.88c0-.65-.55-1.23-1.08-1.23h-6.1v4.74h5.76c1.14,0,1.42-.31,1.42-1.38v-2.13ZM84.48,162.81v-5.98c0-1.14-.28-1.48-1.26-1.48h-5.92v7.46h-3.05v-17.87h9c2.53,0,4.38,1.76,4.38,4.16v1.94c0,1.51-.68,2.34-1.2,2.8.55.4,1.2,1.2,1.2,2.59v6.38h-3.14Z"></path><polygon class="cls-1" points="118.74 147.8 118.74 152.42 125.15 152.42 125.15 155.35 118.74 155.35 118.74 162.81 115.66 162.81 115.66 144.93 127.06 144.93 127.06 147.8 118.74 147.8"></polygon><polygon class="cls-1" points="137.53 162.81 137.53 160 140.12 160 140.12 147.74 137.53 147.74 137.53 144.94 145.85 144.94 145.85 147.74 143.23 147.74 143.23 160 145.85 160 145.85 162.81 137.53 162.81"></polygon><polygon class="cls-1" points="156.94 162.81 156.94 144.94 168.52 144.94 168.52 147.8 160.02 147.8 160.02 152.42 166.61 152.42 166.61 155.35 160.02 155.35 160.02 159.94 168.52 159.94 168.52 162.81 156.94 162.81"></polygon><path class="cls-1" d="M189.84,148.88c0-.65-.55-1.23-1.08-1.23h-6.1v4.74h5.76c1.14,0,1.42-.31,1.42-1.38v-2.13ZM189.84,162.81v-5.98c0-1.14-.28-1.48-1.26-1.48h-5.92v7.46h-3.05v-17.87h9c2.53,0,4.38,1.76,4.38,4.16v1.94c0,1.51-.68,2.34-1.2,2.8.55.4,1.2,1.2,1.2,2.59v6.38h-3.14Z"></path><path class="cls-1" d="M213.2,162.81h-4.75c-2.53,0-4.37-1.76-4.37-4.16v-9.55c0-2.4,1.85-4.16,4.37-4.16h4.81c2.56,0,4.31,1.97,4.31,4.34v1.08h-3.14v-1.35c0-.62-.53-1.14-1.08-1.14h-5.05c-.56,0-1.08.52-1.08,1.14v9.77c0,.62.52,1.14,1.08,1.14h5.05c.55,0,1.08-.52,1.08-1.14v-1.39h3.14v1.26c0,2.4-1.85,4.16-4.38,4.16"></path><polygon class="cls-1" points="228.66 162.81 228.66 144.94 240.25 144.94 240.25 147.8 231.74 147.8 231.74 152.42 238.34 152.42 238.34 155.35 231.74 155.35 231.74 159.94 240.25 159.94 240.25 162.81 228.66 162.81"></polygon><path class="cls-1" d="M260.15,162.87h-4.74c-2.53,0-4.38-1.76-4.38-4.16v-1.14h3.08v1.29c0,.62.52,1.14,1.08,1.14h5.18c.55,0,1.08-.52,1.08-1.14v-2.31c0-1.82-3.64-1.2-5.92-1.26-2.5-.09-4.38-1.76-4.38-4.19v-2c0-2.4,1.85-4.16,4.38-4.16h4.37c2.53,0,4.38,1.76,4.38,4.16v1.17h-3.08v-1.32c0-.62-.53-1.14-1.08-1.14h-4.81c-.56,0-1.08.52-1.08,1.14v2.34c0,1.82,3.64,1.2,5.92,1.23,2.47.06,4.38,1.76,4.38,4.19v2c0,2.4-1.85,4.16-4.38,4.16"></path><polygon class="cls-1" points="283.07 147.8 283.07 162.81 279.77 162.81 279.77 147.8 274.38 147.8 274.38 144.93 288.49 144.93 288.49 147.8 283.07 147.8"></polygon><path class="cls-1" d="M326.05,152.08c0-.65-.03-.8-.4-1.17l-3.3-3.27c-.15.25-3.23,3.27-3.23,3.27-.37.37-.4.52-.4,1.17v2.37h7.33v-2.37ZM329.16,162.81h-3.11v-5.64h-7.33v5.64h-3.11v-10.88c0-1.26.22-2.07,1.17-2.96l4.25-4.04h2.71l4.25,4.04c.96.89,1.17,1.69,1.17,2.96v10.88Z"></path><polygon class="cls-1" points="340.25 162.81 340.25 144.94 343.45 144.94 343.45 159.94 351.46 159.94 351.46 162.81 340.25 162.81"></polygon><polygon class="cls-1" points="361.94 162.81 361.94 144.94 365.14 144.94 365.14 159.94 373.15 159.94 373.15 162.81 361.94 162.81"></polygon><path class="cls-1" d="M393.98,152.58l-3.94,3.91v6.32h-3.14v-6.32l-3.94-3.91c-.92-.89-1.17-1.6-1.17-2.87v-4.78h3.08v4.65c0,.65,0,.74.4,1.11l3.17,3.23,3.2-3.23c.4-.37.4-.46.4-1.11v-4.65h3.11v4.78c0,1.26-.25,1.97-1.17,2.87"></path></svg>