<svg xmlns="http://www.w3.org/2000/svg" id="Layer_2" viewBox="0 0 441.96 113.94"><defs><style>.cls-1{fill:#eee;}.cls-1,.cls-2{stroke-width:0px;}.cls-2{fill:#fff;}</style></defs><g id="Layer_1-2"><path class="cls-1" d="M8.77,57.15c4.39,4.15,11.03,8.06,18.14,8.06,4.15,0,6.64-1.3,7.94-2.73,1.19-1.19,2.02-2.96,2.02-4.98,0-1.54-.59-3.32-2.25-4.74-2.02-1.78-5.1-2.61-10.2-4.15l-5.34-1.66c-3.32-1.07-8.18-2.85-11.38-6.4-4.03-4.39-4.51-9.96-4.51-13.99,0-9.72,3.79-15.65,7.23-19.09C14.46,3.44,21.1,0,30.71,0c7.83,0,16.95,2.49,24.42,6.4l-8.18,16.01c-6.17-4.86-10.79-5.33-13.52-5.33-2.02,0-4.74.47-6.76,2.37-1.19,1.19-2.02,2.49-2.02,4.27,0,1.42.24,2.49,1.07,3.56.59.71,2.02,2.13,6.88,3.56l6.28,1.9c4.98,1.54,10.2,3.32,14.35,7.83,4.03,4.27,5.1,8.65,5.1,14.11,0,7.23-1.78,14.23-7.47,19.92-6.76,6.76-14.94,8.06-23.36,8.06-4.98,0-9.72-.47-15.53-2.61-1.3-.47-6.28-2.37-11.98-6.28l8.77-16.6Z"></path><path class="cls-1" d="M83.47,1.78v46.83c0,3.32.12,8.42,4.03,12.21,2.37,2.25,6.17,3.79,9.72,3.79s7.23-1.42,9.48-3.44c4.74-4.15,4.62-9.96,4.62-14.35V1.78h20.51v45.41c0,8.3-.36,16.95-8.89,25.61-6.64,6.76-14.94,9.84-26.08,9.84-12.45,0-21.34-4.27-26.2-9.48-6.88-7.47-7.71-17.55-7.71-25.96V1.78h20.51Z"></path><path class="cls-1" d="M169.27,1.78c5.93,0,13.52.95,19.33,7,4.51,4.62,6.76,11.5,6.76,17.78,0,6.76-2.37,12.69-6.28,16.48-3.08,2.96-7.23,4.74-10.91,5.45l24.78,32.37h-25.49l-19.68-30.35v30.35h-20.51V1.78h32.01ZM157.77,37.23h3.91c3.08,0,7.47-.83,9.96-3.2,1.54-1.54,2.61-4.15,2.61-6.64s-.95-4.98-2.73-6.64c-1.9-1.9-5.34-3.08-9.84-3.08h-3.91v19.56Z"></path><path class="cls-1" d="M248.95,19.21h-24.42v13.16h23.12v17.43h-23.12v13.63h24.42v17.43h-44.93V1.78h44.93v17.43Z"></path><path class="cls-2" d="M299.71,19.21h-24.78v13.16h22.53v17.43h-22.53v31.06h-20.51V1.78h45.29v17.43Z"></path><path class="cls-2" d="M325.57,1.78v79.08h-20.51V1.78h20.51Z"></path><path class="cls-2" d="M363,1.78c5.93,0,13.52.95,19.33,7,4.51,4.62,6.76,11.5,6.76,17.78,0,6.76-2.37,12.69-6.28,16.48-3.08,2.96-7.23,4.74-10.91,5.45l24.78,32.37h-25.49l-19.68-30.35v30.35h-20.51V1.78h32.01ZM351.5,37.23h3.91c3.08,0,7.47-.83,9.96-3.2,1.54-1.54,2.61-4.15,2.61-6.64s-.95-4.98-2.73-6.64c-1.9-1.9-5.34-3.08-9.84-3.08h-3.91v19.56Z"></path><path class="cls-2" d="M441.96,19.21h-24.42v13.16h23.12v17.43h-23.12v13.63h24.42v17.43h-44.93V1.78h44.93v17.43Z"></path><path class="cls-2" d="M3.15,97.97c2.09,0,3.91.22,5.58,1.46,1.82,1.37,2.88,3.55,2.88,6.05s-1.04,4.66-3.02,6.05c-1.75,1.24-3.4,1.44-5.49,1.44H0v-15.01h3.15ZM2.3,110.82h.99c1.13,0,2.68-.09,3.98-1.06,1.03-.79,2.05-2.23,2.05-4.27s-.94-3.53-2.02-4.32c-1.31-.95-2.9-1.04-4.01-1.04h-.99v10.69Z"></path><path class="cls-2" d="M36.28,100.13h-5.98v3.8h5.8v2.16h-5.8v4.72h5.98v2.16h-8.28v-15.01h8.28v2.16Z"></path><path class="cls-2" d="M55.06,97.97v12.85h4.41v2.16h-6.71v-15.01h2.3Z"></path><path class="cls-2" d="M77.44,97.97v15.01h-2.29v-15.01h2.29Z"></path><path class="cls-2" d="M95.33,97.97l4.18,10.46,4.18-10.46h2.48l-6.66,15.97-6.66-15.97h2.48Z"></path><path class="cls-2" d="M129.85,100.13h-5.98v3.8h5.8v2.16h-5.8v4.72h5.98v2.16h-8.28v-15.01h8.28v2.16Z"></path><path class="cls-2" d="M149.02,97.97c1.82,0,2.99.22,3.96.88,1.64,1.1,1.78,2.88,1.78,3.53,0,2.16-1.33,3.73-3.33,4.18l4.68,6.41h-2.77l-4.3-6.14h-.4v6.14h-2.3v-15.01h2.68ZM148.63,104.86h.72c.63,0,3.19-.07,3.19-2.45,0-2.11-2-2.32-3.13-2.32h-.79v4.77Z"></path><path class="cls-2" d="M175,106.5l-4.93-8.53h2.61l3.46,6.01,3.46-6.01h2.61l-4.93,8.53v6.48h-2.29v-6.48Z"></path><path class="cls-2" d="M225.11,109.36h-6.41l-1.64,3.62h-2.48l7.47-15.88,7.11,15.88h-2.47l-1.57-3.62ZM224.19,107.2l-2.23-5.08-2.32,5.08h4.54Z"></path><path class="cls-2" d="M250.59,101.3c-.13-.34-.34-.65-.67-.95-.47-.38-.97-.54-1.62-.54-1.39,0-2.11.83-2.11,1.8,0,.45.16,1.24,1.62,1.82l1.51.61c2.77,1.12,3.53,2.7,3.53,4.41,0,2.86-2.02,4.81-4.84,4.81-1.73,0-2.77-.65-3.53-1.51-.81-.9-1.17-1.89-1.26-2.92l2.27-.49c0,.74.27,1.44.63,1.91.43.54,1.06.9,1.96.9,1.39,0,2.47-1.01,2.47-2.52s-1.17-2.16-2.16-2.57l-1.44-.61c-1.24-.52-3.06-1.55-3.06-3.8,0-2.02,1.57-3.96,4.39-3.96,1.62,0,2.54.61,3.01,1.01.41.36.83.88,1.15,1.51l-1.85,1.08Z"></path><path class="cls-2" d="M275.25,101.3c-.13-.34-.34-.65-.67-.95-.47-.38-.97-.54-1.62-.54-1.39,0-2.11.83-2.11,1.8,0,.45.16,1.24,1.62,1.82l1.51.61c2.77,1.12,3.53,2.7,3.53,4.41,0,2.86-2.02,4.81-4.84,4.81-1.73,0-2.77-.65-3.53-1.51-.81-.9-1.17-1.89-1.26-2.92l2.27-.49c0,.74.27,1.44.63,1.91.43.54,1.06.9,1.96.9,1.39,0,2.47-1.01,2.47-2.52s-1.17-2.16-2.16-2.57l-1.44-.61c-1.24-.52-3.06-1.55-3.06-3.8,0-2.02,1.57-3.96,4.39-3.96,1.62,0,2.54.61,3.01,1.01.41.36.83.88,1.15,1.51l-1.85,1.08Z"></path><path class="cls-2" d="M296.19,97.97v9.04c0,.81.02,1.8.47,2.59.45.76,1.46,1.55,2.79,1.55s2.34-.79,2.79-1.55c.45-.79.47-1.78.47-2.59v-9.04h2.29v9.65c0,1.19-.25,2.63-1.39,3.89-.79.85-2.11,1.75-4.16,1.75s-3.37-.9-4.16-1.75c-1.15-1.26-1.39-2.7-1.39-3.89v-9.65h2.3Z"></path><path class="cls-2" d="M324.8,97.97c1.82,0,2.99.22,3.96.88,1.64,1.1,1.78,2.88,1.78,3.53,0,2.16-1.33,3.73-3.33,4.18l4.68,6.41h-2.77l-4.3-6.14h-.4v6.14h-2.29v-15.01h2.68ZM324.41,104.86h.72c.63,0,3.19-.07,3.19-2.45,0-2.11-2-2.32-3.13-2.32h-.79v4.77Z"></path><path class="cls-2" d="M356.47,109.36h-6.41l-1.64,3.62h-2.48l7.47-15.88,7.11,15.88h-2.47l-1.57-3.62ZM355.55,107.2l-2.23-5.08-2.32,5.08h4.54Z"></path><path class="cls-2" d="M375.92,112.98v-16.02l10.89,11.41v-10.39h2.29v15.93l-10.89-11.41v10.48h-2.3Z"></path><path class="cls-2" d="M417.33,101.48c-1.66-1.51-3.22-1.66-4.07-1.66-3.26,0-5.47,2.41-5.47,5.71s2.29,5.62,5.49,5.62c1.8,0,3.2-.92,4.05-1.73v2.72c-1.51.9-3.08,1.12-4.12,1.12-2.72,0-4.43-1.24-5.31-2.07-1.76-1.64-2.41-3.55-2.41-5.67,0-2.77,1.15-4.68,2.41-5.87,1.55-1.46,3.35-1.96,5.42-1.96,1.37,0,2.7.25,4.01,1.08v2.7Z"></path><path class="cls-2" d="M441.96,100.13h-5.98v3.8h5.8v2.16h-5.8v4.72h5.98v2.16h-8.28v-15.01h8.28v2.16Z"></path></g></svg>